<svg xmlns="http://www.w3.org/2000/svg" viewBox="0 0 915 441" role="img" fill="none"><title>Egenta by Venode Labs</title><path d="M96 0V1490H1206V1184H456V897H1149V600H456V306H1206V0Z" transform="translate(56.0 237.9) scale(0.12207 -0.12207)" fill="#0A0E0C"/><path d="M617 -432Q373 -432 250.5 -333.0Q128 -234 104 -82H433Q447 -131 495.0 -159.5Q543 -188 617 -188Q813 -188 813 24V187H812Q770 93 691.0 50.0Q612 7 509 7Q370 7 267.5 75.5Q165 144 108.5 264.0Q52 384 52 539Q52 696 110.0 818.0Q168 940 270.0 1009.5Q372 1079 506 1079Q711 1079 812 908H813V1056H1155V58Q1155 -200 1009.5 -316.0Q864 -432 617 -432ZM605 277Q703 277 763.5 349.5Q824 422 824 545Q824 666 763.5 739.0Q703 812 605 812Q510 812 455.5 741.0Q401 670 401 545Q401 419 455.5 348.0Q510 277 605 277Z" transform="translate(204.5 237.9) scale(0.12207 -0.12207)" fill="#0A0E0C"/><path d="M596 -24Q434 -24 311.5 47.0Q189 118 120.5 242.5Q52 367 52 528Q52 689 120.5 813.5Q189 938 310.0 1009.0Q431 1080 587 1080Q746 1080 866.5 1010.5Q987 941 1055.0 818.5Q1123 696 1123 536V443H388Q391 342 448.5 283.0Q506 224 608 224Q684 224 735.5 255.0Q787 286 806 338H1115Q1096 232 1023.0 150.0Q950 68 839.5 22.0Q729 -24 596 -24ZM390 649H802Q790 732 736.0 779.0Q682 826 596 826Q509 826 455.0 779.0Q401 732 390 649Z" transform="translate(351.0 237.9) scale(0.12207 -0.12207)" fill="#0A0E0C"/><path d="M440 574V0H96V1056H436V885Q489 975 571.0 1027.0Q653 1079 772 1079Q944 1079 1039.5 969.0Q1135 859 1135 664V0H791V592Q791 686 746.0 735.5Q701 785 619 785Q538 785 489.0 733.5Q440 682 440 574Z" transform="translate(487.7 237.9) scale(0.12207 -0.12207)" fill="#0A0E0C"/><path d="M761 1056V790H544V355Q544 304 564.0 285.0Q584 266 642 266H761V0H566Q376 0 287.5 71.5Q199 143 199 297V790H19V1056H199V1344H544V1056Z" transform="translate(631.7 237.9) scale(0.12207 -0.12207)" fill="#0A0E0C"/><path d="M419 -18Q260 -18 158.5 59.5Q57 137 57 295Q57 414 112.5 483.0Q168 552 261.0 585.0Q354 618 467 627Q609 639 667.0 656.0Q725 673 725 721V726Q725 773 685.5 802.5Q646 832 578 832Q506 832 463.5 800.0Q421 768 416 714H96Q107 886 233.5 982.5Q360 1079 590 1079Q820 1079 943.0 982.5Q1066 886 1066 711V0H730V148H726Q679 63 605.0 22.5Q531 -18 419 -18ZM524 207Q610 207 669.0 254.5Q728 302 728 380V476Q701 463 653.0 453.0Q605 443 541 432Q472 421 427.5 392.0Q383 363 383 311Q383 262 422.0 234.5Q461 207 524 207Z" transform="translate(723.5 237.9) scale(0.12207 -0.12207)" fill="#00C896"/><path d="M180 0V1490H708Q864 1490 965.5 1436.5Q1067 1383 1116.5 1293.5Q1166 1204 1166 1095Q1166 999 1132.0 936.5Q1098 874 1042.5 837.0Q987 800 922 782V768Q992 764 1061.5 720.0Q1131 676 1177.5 595.0Q1224 514 1224 397Q1224 285 1172.5 195.0Q1121 105 1011.0 52.5Q901 0 725 0ZM370 168H720Q894 168 967.5 235.0Q1041 302 1041 399Q1041 474 1003.0 537.0Q965 600 895.5 638.0Q826 676 730 676H370ZM370 836H698Q818 836 901.0 906.0Q984 976 984 1091Q984 1188 916.5 1255.0Q849 1322 704 1322H370Z" transform="translate(56.0 402.2) scale(0.02637 -0.02637)" fill="#5B6360"/><path d="M600 0V610L52 1490H272L567 1009Q605 947 636.0 891.5Q667 836 697 766Q727 838 758.0 894.0Q789 950 825 1009L1119 1490H1338L790 610V0Z" transform="translate(101.1 402.2) scale(0.02637 -0.02637)" fill="#5B6360"/><path d="M600 0 52 1490H252L567 606Q592 537 627.5 425.5Q663 314 710 154Q757 318 792.5 427.5Q828 537 852 606L1159 1490H1361L819 0Z" transform="translate(172.3 402.2) scale(0.02637 -0.02637)" fill="#5B6360"/><path d="M180 0V1490H1088V1322H370V836H1039V668H370V168H1097V0Z" transform="translate(219.3 402.2) scale(0.02637 -0.02637)" fill="#5B6360"/><path d="M180 0V1490H404L1010 537Q1040 489 1087.5 407.5Q1135 326 1186 225Q1177 333 1175.0 424.5Q1173 516 1173 576V1490H1363V0H1137L597 848Q563 901 529.5 957.0Q496 1013 455.0 1086.0Q414 1159 356 1262Q362 1119 366.5 1011.5Q371 904 371 850V0Z" transform="translate(261.5 402.2) scale(0.02637 -0.02637)" fill="#5B6360"/><path d="M784 -20Q593 -20 443.5 72.5Q294 165 208.0 336.5Q122 508 122 744Q122 981 208.0 1152.5Q294 1324 443.5 1417.0Q593 1510 784 1510Q975 1510 1124.0 1417.0Q1273 1324 1358.5 1152.5Q1444 981 1444 744Q1444 508 1358.5 336.5Q1273 165 1124.0 72.5Q975 -20 784 -20ZM784 156Q917 156 1024.5 223.5Q1132 291 1195.5 422.5Q1259 554 1259 744Q1259 936 1195.5 1067.5Q1132 1199 1024.5 1266.5Q917 1334 784 1334Q650 1334 542.0 1266.0Q434 1198 370.5 1066.5Q307 935 307 744Q307 554 370.5 423.0Q434 292 542.0 224.0Q650 156 784 156Z" transform="translate(311.9 402.2) scale(0.02637 -0.02637)" fill="#5B6360"/><path d="M645 0H180V1490H664Q882 1490 1036.5 1401.0Q1191 1312 1273.5 1145.5Q1356 979 1356 748Q1356 515 1273.0 347.5Q1190 180 1031.0 90.0Q872 0 645 0ZM370 168H633Q905 168 1038.5 322.5Q1172 477 1172 748Q1172 1017 1041.0 1169.5Q910 1322 651 1322H370Z" transform="translate(362.9 402.2) scale(0.02637 -0.02637)" fill="#5B6360"/><path d="M180 0V1490H1088V1322H370V836H1039V668H370V168H1097V0Z" transform="translate(411.6 402.2) scale(0.02637 -0.02637)" fill="#5B6360"/><path d="M180 0V1490H370V168H1060V0Z" transform="translate(478.7 402.2) scale(0.02637 -0.02637)" fill="#5B6360"/><path d="M52 0 593 1490H813L1361 0H1161L1012 416H398L254 0ZM456 582H953L845 884Q818 959 784.0 1067.5Q750 1176 702 1338Q655 1173 620.0 1063.0Q585 953 561 884Z" transform="translate(518.9 402.2) scale(0.02637 -0.02637)" fill="#5B6360"/><path d="M180 0V1490H708Q864 1490 965.5 1436.5Q1067 1383 1116.5 1293.5Q1166 1204 1166 1095Q1166 999 1132.0 936.5Q1098 874 1042.5 837.0Q987 800 922 782V768Q992 764 1061.5 720.0Q1131 676 1177.5 595.0Q1224 514 1224 397Q1224 285 1172.5 195.0Q1121 105 1011.0 52.5Q901 0 725 0ZM370 168H720Q894 168 967.5 235.0Q1041 302 1041 399Q1041 474 1003.0 537.0Q965 600 895.5 638.0Q826 676 730 676H370ZM370 836H698Q818 836 901.0 906.0Q984 976 984 1091Q984 1188 916.5 1255.0Q849 1322 704 1322H370Z" transform="translate(565.9 402.2) scale(0.02637 -0.02637)" fill="#5B6360"/><path d="M657 -26Q415 -26 272.0 88.5Q129 203 116 390H311Q319 306 368.0 251.5Q417 197 493.5 170.5Q570 144 657 144Q758 144 838.5 177.0Q919 210 966.0 270.0Q1013 330 1013 409Q1013 481 972.5 526.0Q932 571 865.0 600.0Q798 629 718 651L538 702Q358 753 258.0 848.0Q158 943 158 1091Q158 1217 226.0 1311.5Q294 1406 410.0 1458.0Q526 1510 670 1510Q817 1510 930.0 1458.0Q1043 1406 1108.5 1316.5Q1174 1227 1178 1114H992Q979 1223 888.0 1282.5Q797 1342 664 1342Q519 1342 431.0 1273.5Q343 1205 343 1100Q343 1022 391.5 974.5Q440 927 506.5 900.5Q573 874 627 859L776 818Q836 802 908.5 774.0Q981 746 1047.0 699.5Q1113 653 1155.5 581.5Q1198 510 1198 406Q1198 284 1134.5 186.0Q1071 88 950.0 31.0Q829 -26 657 -26Z" transform="translate(611.0 402.2) scale(0.02637 -0.02637)" fill="#5B6360"/></svg>