<svg xmlns="http://www.w3.org/2000/svg" viewBox="0 0 966 333" role="img" fill="none"><title>EGNTA by Venode Labs</title><rect x="56.0" y="56.0" width="30.7" height="150.0" fill="#0A0E0C"/><rect x="56.0" y="56.0" width="79.2" height="30.7" fill="#0A0E0C"/><rect x="56.0" y="175.2" width="79.2" height="30.7" fill="#0A0E0C"/><rect x="56.0" y="115.6" width="99.0" height="30.7" fill="#00C896"/><path d="M96 0V1490H1206V1184H456V897H1149V600H456V306H1206V0Z" transform="translate(215.0 206.0) scale(0.10067 -0.10067)" fill="#0A0E0C"/><path d="M772 -24Q556 -24 394.0 71.0Q232 166 142.0 338.5Q52 511 52 744Q52 987 146.0 1159.5Q240 1332 401.5 1423.0Q563 1514 766 1514Q942 1514 1087.5 1447.5Q1233 1381 1326.0 1262.0Q1419 1143 1435 984H1069Q1049 1083 974.5 1141.5Q900 1200 779 1200Q605 1200 509.5 1079.5Q414 959 414 744Q414 529 510.5 409.5Q607 290 783 290Q925 290 1008.5 361.0Q1092 432 1094 547H796V811H1446V609Q1446 420 1360.5 277.5Q1275 135 1123.0 55.5Q971 -24 772 -24Z" transform="translate(338.5 206.0) scale(0.10067 -0.10067)" fill="#0A0E0C"/><path d="M96 0V1490H468L891 813Q918 771 961.0 694.5Q1004 618 1047 538Q1045 626 1043.5 710.0Q1042 794 1042 844V1490H1402V0H1029L641 620Q608 672 558.0 759.0Q508 846 450 951Q454 842 455.0 755.0Q456 668 456 621V0Z" transform="translate(486.5 206.0) scale(0.10067 -0.10067)" fill="#0A0E0C"/><path d="M42 1184V1490H1279V1184H841V0H481V1184Z" transform="translate(633.2 206.0) scale(0.10067 -0.10067)" fill="#0A0E0C"/><path d="M5 0 517 1490H991L1506 0H1104L1016 287H487L396 0ZM577 568H929L902 655Q865 780 828.5 905.0Q792 1030 755 1167Q717 1030 680.0 905.0Q643 780 604 655Z" transform="translate(762.1 206.0) scale(0.10067 -0.10067)" fill="#0A0E0C"/><path d="M180 0V1490H708Q864 1490 965.5 1436.5Q1067 1383 1116.5 1293.5Q1166 1204 1166 1095Q1166 999 1132.0 936.5Q1098 874 1042.5 837.0Q987 800 922 782V768Q992 764 1061.5 720.0Q1131 676 1177.5 595.0Q1224 514 1224 397Q1224 285 1172.5 195.0Q1121 105 1011.0 52.5Q901 0 725 0ZM370 168H720Q894 168 967.5 235.0Q1041 302 1041 399Q1041 474 1003.0 537.0Q965 600 895.5 638.0Q826 676 730 676H370ZM370 836H698Q818 836 901.0 906.0Q984 976 984 1091Q984 1188 916.5 1255.0Q849 1322 704 1322H370Z" transform="translate(215.0 296.3) scale(0.02637 -0.02637)" fill="#5B6360"/><path d="M600 0V610L52 1490H272L567 1009Q605 947 636.0 891.5Q667 836 697 766Q727 838 758.0 894.0Q789 950 825 1009L1119 1490H1338L790 610V0Z" transform="translate(261.1 296.3) scale(0.02637 -0.02637)" fill="#5B6360"/><path d="M600 0 52 1490H252L567 606Q592 537 627.5 425.5Q663 314 710 154Q757 318 792.5 427.5Q828 537 852 606L1159 1490H1361L819 0Z" transform="translate(334.6 296.3) scale(0.02637 -0.02637)" fill="#5B6360"/><path d="M180 0V1490H1088V1322H370V836H1039V668H370V168H1097V0Z" transform="translate(382.6 296.3) scale(0.02637 -0.02637)" fill="#5B6360"/><path d="M180 0V1490H404L1010 537Q1040 489 1087.5 407.5Q1135 326 1186 225Q1177 333 1175.0 424.5Q1173 516 1173 576V1490H1363V0H1137L597 848Q563 901 529.5 957.0Q496 1013 455.0 1086.0Q414 1159 356 1262Q362 1119 366.5 1011.5Q371 904 371 850V0Z" transform="translate(425.9 296.3) scale(0.02637 -0.02637)" fill="#5B6360"/><path d="M784 -20Q593 -20 443.5 72.5Q294 165 208.0 336.5Q122 508 122 744Q122 981 208.0 1152.5Q294 1324 443.5 1417.0Q593 1510 784 1510Q975 1510 1124.0 1417.0Q1273 1324 1358.5 1152.5Q1444 981 1444 744Q1444 508 1358.5 336.5Q1273 165 1124.0 72.5Q975 -20 784 -20ZM784 156Q917 156 1024.5 223.5Q1132 291 1195.5 422.5Q1259 554 1259 744Q1259 936 1195.5 1067.5Q1132 1199 1024.5 1266.5Q917 1334 784 1334Q650 1334 542.0 1266.0Q434 1198 370.5 1066.5Q307 935 307 744Q307 554 370.5 423.0Q434 292 542.0 224.0Q650 156 784 156Z" transform="translate(477.4 296.3) scale(0.02637 -0.02637)" fill="#5B6360"/><path d="M645 0H180V1490H664Q882 1490 1036.5 1401.0Q1191 1312 1273.5 1145.5Q1356 979 1356 748Q1356 515 1273.0 347.5Q1190 180 1031.0 90.0Q872 0 645 0ZM370 168H633Q905 168 1038.5 322.5Q1172 477 1172 748Q1172 1017 1041.0 1169.5Q910 1322 651 1322H370Z" transform="translate(529.5 296.3) scale(0.02637 -0.02637)" fill="#5B6360"/><path d="M180 0V1490H1088V1322H370V836H1039V668H370V168H1097V0Z" transform="translate(579.2 296.3) scale(0.02637 -0.02637)" fill="#5B6360"/><path d="M180 0V1490H370V168H1060V0Z" transform="translate(648.5 296.3) scale(0.02637 -0.02637)" fill="#5B6360"/><path d="M52 0 593 1490H813L1361 0H1161L1012 416H398L254 0ZM456 582H953L845 884Q818 959 784.0 1067.5Q750 1176 702 1338Q655 1173 620.0 1063.0Q585 953 561 884Z" transform="translate(689.8 296.3) scale(0.02637 -0.02637)" fill="#5B6360"/><path d="M180 0V1490H708Q864 1490 965.5 1436.5Q1067 1383 1116.5 1293.5Q1166 1204 1166 1095Q1166 999 1132.0 936.5Q1098 874 1042.5 837.0Q987 800 922 782V768Q992 764 1061.5 720.0Q1131 676 1177.5 595.0Q1224 514 1224 397Q1224 285 1172.5 195.0Q1121 105 1011.0 52.5Q901 0 725 0ZM370 168H720Q894 168 967.5 235.0Q1041 302 1041 399Q1041 474 1003.0 537.0Q965 600 895.5 638.0Q826 676 730 676H370ZM370 836H698Q818 836 901.0 906.0Q984 976 984 1091Q984 1188 916.5 1255.0Q849 1322 704 1322H370Z" transform="translate(737.9 296.3) scale(0.02637 -0.02637)" fill="#5B6360"/><path d="M657 -26Q415 -26 272.0 88.5Q129 203 116 390H311Q319 306 368.0 251.5Q417 197 493.5 170.5Q570 144 657 144Q758 144 838.5 177.0Q919 210 966.0 270.0Q1013 330 1013 409Q1013 481 972.5 526.0Q932 571 865.0 600.0Q798 629 718 651L538 702Q358 753 258.0 848.0Q158 943 158 1091Q158 1217 226.0 1311.5Q294 1406 410.0 1458.0Q526 1510 670 1510Q817 1510 930.0 1458.0Q1043 1406 1108.5 1316.5Q1174 1227 1178 1114H992Q979 1223 888.0 1282.5Q797 1342 664 1342Q519 1342 431.0 1273.5Q343 1205 343 1100Q343 1022 391.5 974.5Q440 927 506.5 900.5Q573 874 627 859L776 818Q836 802 908.5 774.0Q981 746 1047.0 699.5Q1113 653 1155.5 581.5Q1198 510 1198 406Q1198 284 1134.5 186.0Q1071 88 950.0 31.0Q829 -26 657 -26Z" transform="translate(784.0 296.3) scale(0.02637 -0.02637)" fill="#5B6360"/></svg>